<svg width="733" height="124" viewBox="0 0 733 124" fill="none" xmlns="http://www.w3.org/2000/svg">
<path d="M36.572 13.448C29.684 13.6667 24.3813 16.2907 20.664 21.32C17.056 26.3493 15.252 35.0413 15.252 47.396C15.252 51.4413 15.6347 54.284 16.4 55.924C17.1653 57.4547 17.548 58.3293 17.548 58.548C11.644 58.548 7.21599 57.3453 4.26399 54.94C1.42132 52.4253 -1.30944e-05 48.3253 -1.30944e-05 42.64C-1.30944e-05 34.8773 1.91332 27.8253 5.73999 21.484C9.56665 15.0333 15.6347 9.84001 23.944 5.904C32.3627 1.968 43.0227 1.66893e-06 55.924 1.66893e-06C58.548 1.66893e-06 62.0467 0.273335 66.42 0.820001C74.292 1.58534 79.868 1.96801 83.148 1.96801C88.9427 1.96801 93.8627 1.312 97.908 1.66893e-06C97.58 0.984002 96.9787 3.17067 96.104 6.56001C95.2293 9.84001 93.644 12.6827 91.348 15.088C89.1613 17.384 86.1547 18.9147 82.328 19.68C75.8773 19.68 68.224 18.6413 59.368 16.564L52.48 49.2H76.424L73.8 61.336H49.856L36.572 123H12.956L36.572 13.448ZM97.7414 123.656C89.6508 123.656 83.2548 121.579 78.5534 117.424C73.8521 113.269 71.5014 106.709 71.5014 97.744C71.5014 90.3093 73.0321 82.0547 76.0934 72.98C79.1548 63.9053 84.0748 56.088 90.8534 49.528C97.6321 42.8587 106.16 39.524 116.437 39.524C130.432 39.524 137.429 48.2707 137.429 65.764V65.928C137.757 66.0373 138.359 66.092 139.233 66.092C142.841 66.092 146.996 65.1627 151.697 63.304C156.399 61.336 160.663 58.9853 164.489 56.252L165.965 60.68C162.795 64.0693 158.64 66.9667 153.501 69.372C148.472 71.668 142.951 73.308 136.937 74.292C136.063 84.2413 133.821 92.9333 130.213 100.368C126.605 107.803 121.959 113.543 116.273 117.588C110.588 121.633 104.411 123.656 97.7414 123.656ZM104.301 108.896C106.925 108.896 109.549 107.42 112.173 104.468C114.797 101.407 117.093 97.3067 119.061 92.168C121.029 86.92 122.451 81.1253 123.325 74.784C120.373 74.128 118.897 71.832 118.897 67.896C118.897 63.4133 120.592 60.4613 123.981 59.04C123.763 55.432 123.216 52.972 122.341 51.66C121.467 50.2387 119.936 49.528 117.749 49.528C114.141 49.528 110.643 52.152 107.253 57.4C103.864 62.648 101.131 68.9347 99.0534 76.26C96.9761 83.5853 95.9374 90.036 95.9374 95.612C95.9374 100.86 96.5388 104.413 97.7414 106.272C98.9441 108.021 101.131 108.896 104.301 108.896ZM169.812 123.656C161.721 123.656 155.325 121.579 150.624 117.424C145.922 113.269 143.572 106.709 143.572 97.744C143.572 90.3093 145.102 82.0547 148.164 72.98C151.225 63.9053 156.145 56.088 162.924 49.528C169.702 42.8587 178.23 39.524 188.508 39.524C202.502 39.524 209.5 48.2707 209.5 65.764V65.928C209.828 66.0373 210.429 66.092 211.304 66.092C214.912 66.092 219.066 65.1627 223.768 63.304C228.469 61.336 232.733 58.9853 236.56 56.252L238.036 60.68C234.865 64.0693 230.71 66.9667 225.572 69.372C220.542 71.668 215.021 73.308 209.008 74.292C208.133 84.2413 205.892 92.9333 202.284 100.368C198.676 107.803 194.029 113.543 188.344 117.588C182.658 121.633 176.481 123.656 169.812 123.656ZM176.372 108.896C178.996 108.896 181.62 107.42 184.244 104.468C186.868 101.407 189.164 97.3067 191.132 92.168C193.1 86.92 194.521 81.1253 195.396 74.784C192.444 74.128 190.968 71.832 190.968 67.896C190.968 63.4133 192.662 60.4613 196.052 59.04C195.833 55.432 195.286 52.972 194.412 51.66C193.537 50.2387 192.006 49.528 189.82 49.528C186.212 49.528 182.713 52.152 179.324 57.4C175.934 62.648 173.201 68.9347 171.124 76.26C169.046 83.5853 168.008 90.036 168.008 95.612C168.008 100.86 168.609 104.413 169.812 106.272C171.014 108.021 173.201 108.896 176.372 108.896ZM237.618 123.984C231.386 123.984 226.193 121.852 222.038 117.588C217.883 113.324 215.806 106.655 215.806 97.58C215.806 89.4893 217.391 81.016 220.562 72.16C223.842 63.1947 228.653 55.6507 234.994 49.528C241.445 43.296 249.098 40.18 257.954 40.18C262.437 40.18 265.771 40.9453 267.958 42.476C270.145 44.0067 271.238 46.0293 271.238 48.544V49.2L279.274 11.48L303.546 8.2L284.686 96.76C284.249 98.4 284.03 100.149 284.03 102.008C284.03 104.195 284.522 105.78 285.506 106.764C286.599 107.639 288.349 108.076 290.754 108.076C293.815 108.076 296.439 106.764 298.626 104.14C300.922 101.516 302.726 98.0173 304.038 93.644H310.926C304.257 113.215 293.269 123 277.962 123C273.479 123 269.817 121.797 266.974 119.392C264.241 116.987 262.546 113.488 261.89 108.896C259.047 113.269 255.603 116.877 251.558 119.72C247.622 122.563 242.975 123.984 237.618 123.984ZM248.278 108.076C250.902 108.076 253.526 106.873 256.15 104.468C258.883 102.063 260.742 98.728 261.726 94.464V93.644L269.762 56.088C268.778 52.2613 266.537 50.348 263.038 50.348C258.665 50.348 254.729 52.9173 251.23 58.056C247.731 63.0853 244.998 69.208 243.03 76.424C241.062 83.5307 240.078 89.8173 240.078 95.284C240.078 100.751 240.843 104.249 242.374 105.78C244.014 107.311 245.982 108.076 248.278 108.076ZM331.49 32.144C327.882 32.144 324.821 30.8867 322.306 28.372C319.791 25.8573 318.534 22.796 318.534 19.188C318.534 15.58 319.791 12.5187 322.306 10.004C324.821 7.38 327.882 6.068 331.49 6.068C335.098 6.068 338.159 7.38 340.674 10.004C343.298 12.5187 344.61 15.58 344.61 19.188C344.61 22.796 343.298 25.8573 340.674 28.372C338.159 30.8867 335.098 32.144 331.49 32.144ZM320.338 123.984C315.09 123.984 310.826 122.344 307.546 119.064C304.375 115.784 302.79 110.864 302.79 104.304C302.79 101.571 303.227 98.0173 304.102 93.644L315.254 41H338.87L327.062 96.76C326.625 98.4 326.406 100.149 326.406 102.008C326.406 104.195 326.898 105.78 327.882 106.764C328.975 107.639 330.725 108.076 333.13 108.076C336.301 108.076 339.253 106.764 341.986 104.14C344.719 101.407 346.687 97.908 347.89 93.644H354.778C350.733 105.452 345.539 113.488 339.198 117.752C332.857 121.907 326.57 123.984 320.338 123.984ZM371.277 123.984C363.186 123.984 356.899 121.907 352.417 117.752C347.934 113.488 345.693 106.873 345.693 97.908C345.693 90.364 347.169 82.0547 350.121 72.98C353.073 63.9053 357.883 56.088 364.553 49.528C371.222 42.8587 379.695 39.524 389.973 39.524C401.999 39.524 408.013 44.772 408.013 55.268C408.013 61.3907 406.263 67.0213 402.765 72.16C399.266 77.2987 394.619 81.4533 388.825 84.624C383.03 87.6853 376.853 89.4347 370.293 89.872C370.074 93.152 369.965 95.3387 369.965 96.432C369.965 101.789 370.894 105.452 372.753 107.42C374.611 109.279 377.618 110.208 381.773 110.208C387.677 110.208 392.706 108.841 396.861 106.108C401.125 103.375 405.771 99.22 410.801 93.644H416.377C404.241 113.871 389.207 123.984 371.277 123.984ZM371.605 82C375.65 81.7813 379.477 80.36 383.085 77.736C386.802 75.112 389.754 71.7773 391.941 67.732C394.237 63.6867 395.385 59.4227 395.385 54.94C395.385 50.4573 394.018 48.216 391.285 48.216C387.349 48.216 383.467 51.66 379.641 58.548C375.923 65.436 373.245 73.2533 371.605 82ZM427.002 123.984C421.754 123.984 417.49 122.344 414.21 119.064C411.04 115.784 409.454 110.864 409.454 104.304C409.454 101.571 409.892 98.0173 410.766 93.644L428.314 11.48L452.586 8.2L433.726 96.76C433.289 98.4 433.07 100.149 433.07 102.008C433.07 104.195 433.562 105.78 434.546 106.764C435.64 107.639 437.389 108.076 439.794 108.076C442.965 108.076 445.917 106.764 448.65 104.14C451.384 101.407 453.352 97.908 454.554 93.644H461.442C457.397 105.452 452.204 113.488 445.862 117.752C439.521 121.907 433.234 123.984 427.002 123.984ZM474.169 123.984C467.937 123.984 462.743 121.852 458.589 117.588C454.434 113.324 452.357 106.655 452.357 97.58C452.357 89.4893 453.942 81.016 457.113 72.16C460.393 63.1947 465.203 55.6507 471.545 49.528C477.995 43.296 485.649 40.18 494.505 40.18C498.988 40.18 502.322 40.9453 504.509 42.476C506.695 44.0067 507.789 46.0293 507.789 48.544V49.692L509.593 41H533.209L521.401 96.76C520.963 98.4 520.745 100.149 520.745 102.008C520.745 106.709 522.986 109.06 527.469 109.06C530.53 109.06 533.154 107.639 535.341 104.796C537.637 101.953 539.441 98.236 540.753 93.644H547.641C543.596 105.452 538.566 113.488 532.553 117.752C526.649 121.907 520.69 123.984 514.677 123.984C510.085 123.984 506.368 122.727 503.525 120.212C500.792 117.588 499.152 113.816 498.605 108.896C495.434 113.379 491.881 117.041 487.945 119.884C484.118 122.617 479.526 123.984 474.169 123.984ZM484.829 108.076C487.562 108.076 490.241 106.819 492.865 104.304C495.598 101.68 497.457 98.1267 498.441 93.644L506.313 56.58C506.313 55.1587 505.766 53.792 504.673 52.48C503.579 51.0587 501.885 50.348 499.589 50.348C495.215 50.348 491.279 52.9173 487.781 58.056C484.282 63.0853 481.549 69.208 479.581 76.424C477.613 83.5307 476.629 89.8173 476.629 95.284C476.629 100.751 477.394 104.249 478.925 105.78C480.565 107.311 482.533 108.076 484.829 108.076ZM600.017 123.984C593.348 123.984 588.428 122.235 585.257 118.736C582.196 115.128 580.665 110.7 580.665 105.452C580.665 103.156 580.938 100.587 581.485 97.744C582.032 94.792 582.578 91.9493 583.125 89.216C583.781 86.4827 584.218 84.7333 584.437 83.968C585.312 80.1413 586.132 76.3693 586.897 72.652C587.662 68.9347 588.045 65.928 588.045 63.632C588.045 58.056 586.077 55.268 582.141 55.268C579.298 55.268 576.784 56.6893 574.597 59.532C572.41 62.2653 570.661 65.8733 569.349 70.356L558.197 123H534.581L551.965 41H575.581L573.777 49.528C579.244 43.4053 585.64 40.344 592.965 40.344C598.541 40.344 602.969 41.8747 606.249 44.936C609.529 47.9973 611.169 52.644 611.169 58.876C611.169 62.0467 610.786 65.6 610.021 69.536C609.256 73.3627 608.162 78.064 606.741 83.64C605.866 87.0293 605.046 90.364 604.281 93.644C603.625 96.8147 603.297 99.3293 603.297 101.188C603.297 103.375 603.789 105.069 604.773 106.272C605.757 107.475 607.452 108.076 609.857 108.076C613.137 108.076 615.761 106.928 617.729 104.632C619.697 102.227 621.665 98.564 623.633 93.644H630.521C626.476 105.671 621.774 113.761 616.417 117.916C611.169 121.961 605.702 123.984 600.017 123.984ZM643.294 123.984C637.062 123.984 631.868 121.852 627.714 117.588C623.559 113.324 621.482 106.655 621.482 97.58C621.482 89.4893 623.067 81.016 626.238 72.16C629.518 63.1947 634.328 55.6507 640.67 49.528C647.12 43.296 654.774 40.18 663.63 40.18C668.113 40.18 671.447 40.9453 673.634 42.476C675.82 44.0067 676.914 46.0293 676.914 48.544V49.2L684.95 11.48L709.222 8.2L690.362 96.76C689.925 98.4 689.706 99.9853 689.706 101.516C689.706 105.889 691.947 108.076 696.43 108.076C698.398 108.076 700.147 107.748 701.678 107.092C701.241 112.559 699.273 116.768 695.774 119.72C692.384 122.563 688.339 123.984 683.638 123.984C679.264 123.984 675.547 122.891 672.486 120.704C669.534 118.408 667.566 114.964 666.582 110.372C660.022 119.447 652.259 123.984 643.294 123.984ZM653.954 108.076C656.359 108.076 658.765 107.037 661.17 104.96C663.684 102.883 665.543 99.9853 666.746 96.268L667.402 93.644L675.438 56.088C674.454 52.2613 672.212 50.348 668.714 50.348C664.34 50.348 660.404 52.9173 656.906 58.056C653.407 63.0853 650.674 69.208 648.706 76.424C646.738 83.5307 645.754 89.8173 645.754 95.284C645.754 100.751 646.519 104.249 648.05 105.78C649.69 107.311 651.658 108.076 653.954 108.076Z" fill="black"/>
<path d="M719.65 123.656C716.042 123.656 712.981 122.399 710.466 119.884C707.951 117.369 706.694 114.308 706.694 110.7C706.694 107.092 707.951 104.031 710.466 101.516C712.981 98.892 716.042 97.58 719.65 97.58C723.258 97.58 726.319 98.892 728.834 101.516C731.458 104.031 732.77 107.092 732.77 110.7C732.77 114.308 731.458 117.369 728.834 119.884C726.319 122.399 723.258 123.656 719.65 123.656Z" fill="#FF7426"/>
</svg>
